<svg xmlns:xlink="http://www.w3.org/1999/xlink" xmlns="http://www.w3.org/2000/svg" xlink="http://www.w3.org/1999/xlink" viewBox="0 0 173 173" id="svg1310486189" width="173"  height="173" ><path d="M 89.1 1.6 C 90.2 3.6 93 3.8 94.3 1.9 C 95.7 -0.1 98.8 0.3 99.7 2.6 C 100.5 4.7 103.3 5.2 104.8 3.6 C 106.5 1.8 109.5 2.6 110.1 5 C 110.7 7.2 113.3 8.1 115.1 6.6 C 117 5.1 119.8 6.2 120.2 8.6 C 120.5 10.8 123 12 124.9 10.8 C 127 9.5 129.7 11 129.7 13.4 C 129.7 15.7 132.1 17.2 134.1 16.2 C 136.3 15.2 138.8 17 138.5 19.4 C 138.2 21.7 140.4 23.4 142.5 22.7 C 144.8 22 147.1 24.1 146.5 26.4 C 145.9 28.6 147.9 30.6 150.1 30.2 C 152.5 29.8 154.5 32.1 153.6 34.4 C 152.8 36.5 154.4 38.8 156.7 38.6 C 159.1 38.5 160.8 41 159.6 43.2 C 158.5 45.2 159.9 47.6 162.1 47.8 C 164.5 48 165.8 50.7 164.4 52.7 C 163.1 54.5 164.1 57.1 166.3 57.6 C 168.7 58.1 169.6 61 168 62.8 C 166.5 64.5 167.1 67.2 169.3 67.9 C 171.6 68.7 172.2 71.7 170.3 73.2 C 168.6 74.7 168.9 77.4 171 78.4 C 173.2 79.4 173.4 82.5 171.3 83.8 C 169.4 85 169.4 87.8 171.3 89 C 173.4 90.3 173.2 93.4 171 94.4 C 169 95.4 168.6 98.1 170.3 99.6 C 172.2 101.2 171.6 104.2 169.3 104.9 C 167.1 105.6 166.5 108.3 168 110 C 169.7 111.8 168.7 114.7 166.3 115.2 C 164.1 115.6 163 118.2 164.4 120.1 C 165.8 122.1 164.5 124.9 162.1 125 C 159.8 125.2 158.5 127.6 159.6 129.6 C 160.8 131.7 159.1 134.3 156.7 134.2 C 154.4 134.1 152.8 136.3 153.6 138.4 C 154.5 140.7 152.5 143 150.1 142.6 C 147.9 142.2 146 144.2 146.5 146.4 C 147.1 148.8 144.9 150.9 142.5 150.1 C 140.3 149.4 138.2 151.2 138.5 153.4 C 138.8 155.8 136.3 157.6 134.1 156.6 C 132 155.6 129.7 157.1 129.7 159.4 C 129.7 161.8 127 163.3 124.9 162 C 123 160.8 120.5 162 120.2 164.2 C 119.9 166.6 117 167.8 115.1 166.2 C 113.3 164.8 110.7 165.6 110.1 167.8 C 109.5 170.2 106.5 170.9 104.8 169.2 C 103.2 167.6 100.5 168.1 99.7 170.2 C 98.8 172.5 95.7 172.9 94.3 170.9 C 93 169.1 90.2 169.2 89.1 171.2 C 87.9 173.3 84.8 173.3 83.7 171.2 C 82.6 169.2 79.8 169 78.5 170.9 C 77.1 172.9 74 172.5 73.1 170.2 C 72.3 168.1 69.5 167.6 68 169.2 C 66.3 171 63.3 170.2 62.7 167.8 C 62.1 165.6 59.5 164.7 57.7 166.2 C 55.8 167.7 53 166.6 52.6 164.2 C 52.3 162 49.8 160.8 47.9 162 C 45.8 163.3 43.1 161.8 43.1 159.4 C 43.1 157.1 40.7 155.6 38.7 156.6 C 36.5 157.6 34 155.8 34.3 153.4 C 34.6 151.1 32.4 149.4 30.3 150.1 C 28 150.8 25.7 148.7 26.3 146.4 C 26.9 144.2 24.9 142.2 22.7 142.6 C 20.3 143 18.3 140.7 19.2 138.4 C 20 136.3 18.4 134 16.1 134.2 C 13.7 134.3 12 131.8 13.2 129.6 C 14.3 127.6 12.9 125.2 10.7 125 C 8.3 124.8 7 122.1 8.4 120.1 C 9.7 118.3 8.7 115.7 6.5 115.2 C 4.1 114.7 3.2 111.8 4.8 110 C 6.3 108.3 5.7 105.6 3.5 104.9 C 1.2 104.1 0.6 101.1 2.5 99.6 C 4.2 98.1 3.9 95.4 1.8 94.4 C -0.4 93.4 -0.6 90.3 1.5 89 C 3.4 87.8 3.4 85 1.5 83.8 C -0.6 82.5 -0.4 79.4 1.8 78.4 C 3.8 77.4 4.2 74.7 2.5 73.2 C 0.6 71.6 1.2 68.6 3.5 67.9 C 5.7 67.2 6.3 64.5 4.8 62.8 C 3.1 61 4.1 58.1 6.5 57.6 C 8.7 57.2 9.8 54.6 8.4 52.7 C 7 50.7 8.3 47.9 10.7 47.8 C 13 47.6 14.3 45.2 13.2 43.2 C 12 41.1 13.7 38.5 16.1 38.6 C 18.4 38.7 20 36.5 19.2 34.4 C 18.3 32.1 20.3 29.8 22.7 30.2 C 24.9 30.6 26.8 28.6 26.3 26.4 C 25.7 24 27.9 21.9 30.3 22.7 C 32.5 23.4 34.6 21.6 34.3 19.4 C 34 17 36.5 15.2 38.7 16.2 C 40.8 17.2 43.1 15.7 43.1 13.4 C 43.1 11 45.8 9.5 47.9 10.8 C 49.8 12 52.3 10.8 52.6 8.6 C 52.9 6.2 55.8 5 57.7 6.6 C 59.5 8 62.1 7.2 62.7 5 C 63.3 2.6 66.3 1.9 68 3.6 C 69.6 5.2 72.3 4.7 73.1 2.6 C 74 0.3 77.1 -0.1 78.5 1.9 C 79.8 3.7 82.6 3.6 83.7 1.6 C 84.8 -0.5 87.9 -0.5 89.1 1.6 Z" fill="#ABEE5F"></path></svg>