<svg xmlns="http://www.w3.org/2000/svg" xmlns:xlink="http://www.w3.org/1999/xlink" style="width: 100%; height: 100%" width="27"  height="23" ><defs><svg xmlns="http://www.w3.org/2000/svg" xlink="http://www.w3.org/1999/xlink" viewBox="0 0 27 23" id="svg1426935489"><path d="M 26.9 7 L 26.9 8.2 C 26.9 8.3 26.9 8.4 26.8 8.4 C 26.6 9.7 26.2 11 25.5 12.1 C 24.9 13 24.3 13.9 23.6 14.7 C 22.7 15.8 21.7 16.7 20.6 17.7 C 19.6 18.5 18.7 19.4 17.6 20.1 C 16.3 21.1 14.9 22.1 13.5 23 C 13.4 23.1 13.3 23.1 13.2 23 C 12 22.1 10.8 21.3 9.6 20.4 C 8.4 19.5 7.2 18.5 6 17.4 C 4.5 16.1 3.1 14.7 2 13.1 C 1.1 11.9 0.5 10.5 0.2 9.1 C 0.1 8.9 0.1 8.6 -0 8.2 L -0 6.8 C 0.1 6.3 0.2 5.7 0.4 5.2 C 1 3.4 2.2 1.9 3.8 1 C 5.3 0.1 7.1 -0.2 8.8 0.1 C 10.5 0.4 12 1.2 13.2 2.5 C 13.3 2.6 13.3 2.7 13.3 2.7 L 14 2 C 16.9 -0.7 21.4 -0.7 24.3 2 C 25.4 3 26.2 4.3 26.5 5.7 C 26.8 6.2 26.8 6.6 26.9 7 Z" fill="#1B1C1E"></path></svg></defs><use href="#svg1426935489"></use></svg>