<svg xmlns="http://www.w3.org/2000/svg" xmlns:xlink="http://www.w3.org/1999/xlink" style="width: 100%; height: 100%" viewBox="0 0 30 33" preserveAspectRatio="none" width="30" height="33"><defs><svg xmlns="http://www.w3.org/2000/svg" viewBox="0 0 30 33" style="enable-background:new 0 0 30 33" space="preserve" id="svg-962159428_1448"><path d="M15 33c-1.3 0-2.2-.4-2.9-1.2-.7-.8-1-1.7-1-2.7 0-1.1.2-2 .6-2.9.4-.9.9-1.9 1.4-3.1.5-1.2.8-2.6 1-4.2.1-.4 0-.6-.2-.7-.2-.1-.5 0-.8.2-2 1.6-3.4 3.2-4.1 4.5-.8 1.4-1.8 2.4-3.1 3.2-.9.5-1.8.6-2.8.4-1-.2-1.8-.8-2.5-1.8-.6-1.1-.7-2.2-.4-3.2.3-1 .9-1.7 1.8-2.2.9-.5 1.9-.8 2.9-.9 1-.1 2.2-.2 3.4-.3 1.2-.1 2.6-.5 4.1-1.2.4-.1.6-.3.6-.6s-.2-.5-.6-.6c-1.5-.7-2.9-1.1-4.1-1.2-1.2-.1-2.4-.2-3.4-.2-1-.1-2-.4-2.9-.9-.9-.5-1.5-1.3-1.8-2.3-.3-1-.2-2 .4-3.1.7-1.1 1.5-1.7 2.5-1.9 1-.2 1.9 0 2.8.5.9.5 1.7 1.2 2.3 2 .6.8 1.3 1.7 2 2.7.7 1 1.8 2 3.1 3.1.3.3.6.3.8.2.2-.1.3-.4.2-.8-.2-1.7-.5-3.1-1-4.2s-1-2.1-1.4-3.1c-.4-.9-.6-1.9-.6-2.9s.3-1.9 1-2.7C12.8.4 13.7 0 15 0c1.3 0 2.2.4 2.9 1.2.7.8 1 1.7 1 2.7 0 1-.2 1.9-.6 2.9-.4.9-.9 1.9-1.4 3.1-.5 1.1-.8 2.5-1 4.2-.1.4 0 .7.2.8.2.1.5.1.7-.2 1.4-1.1 2.4-2.1 3.1-3.1.7-1 1.3-1.9 1.9-2.7.6-.8 1.4-1.5 2.3-2 .9-.5 1.8-.7 2.8-.5 1 .2 1.8.8 2.5 1.9.6 1.1.7 2.1.4 3.1-.3 1-.9 1.7-1.8 2.3-.9.5-1.9.8-2.9.9-1 .1-2.2.1-3.4.2-1.2.1-2.6.5-4.1 1.2-.4 0-.6.2-.6.5s.2.5.6.6c1.5.7 2.9 1.1 4.1 1.2 1.2.1 2.4.2 3.4.3 1 .1 2 .4 2.9.9.9.5 1.5 1.2 1.8 2.2.3 1 .2 2-.4 3.2-.7 1.1-1.5 1.7-2.5 1.8-1 .2-1.9 0-2.8-.4-1.3-.7-2.3-1.8-3.1-3.2-.8-1.4-2.2-2.9-4.2-4.5-.3-.3-.5-.3-.8-.2-.3.1-.4.3-.3.7.2 1.6.5 3 1 4.2.5 1.2 1 2.2 1.4 3.1.4.9.6 1.9.6 2.9s-.3 1.9-1 2.7c-.5.6-1.4 1-2.7 1z" style="" fill="#1B1C1E"></path></svg></defs><use href="#svg-962159428_1448"></use></svg>