<svg xmlns="http://www.w3.org/2000/svg" xmlns:xlink="http://www.w3.org/1999/xlink" style="width: 100%; height: 100%" width="100"  height="100" ><defs><svg xmlns="http://www.w3.org/2000/svg" xlink="http://www.w3.org/1999/xlink" viewBox="0 0 100 100" id="svg3780343326"><path d="M 50 0 L 50 50 L 56.3 0.4 L 50 50 L 62.4 1.6 L 50 50 L 68.4 3.5 L 50 50 L 74.1 6.2 L 50 50 L 79.4 9.5 L 50 50 L 84.2 13.6 L 50 50 L 88.5 18.1 L 50 50 L 92.2 23.2 L 50 50 L 95.2 28.7 L 50 50 L 97.6 34.5 L 50 50 L 99.1 40.6 L 50 50 L 99.9 46.9 L 50 50 L 99.9 53.1 L 50 50 L 99.1 59.4 L 50 50 L 97.6 65.5 L 50 50 L 95.2 71.3 L 50 50 L 92.2 76.8 L 50 50 L 88.5 81.9 L 50 50 L 84.2 86.4 L 50 50 L 79.4 90.5 L 50 50 L 74.1 93.8 L 50 50 L 68.4 96.5 L 50 50 L 62.4 98.4 L 50 50 L 56.3 99.6 L 50 50 L 50 100 L 50 50 L 43.7 99.6 L 50 50 L 37.6 98.4 L 50 50 L 31.6 96.5 L 50 50 L 25.9 93.8 L 50 50 L 20.6 90.5 L 50 50 L 15.8 86.4 L 50 50 L 11.5 81.9 L 50 50 L 7.8 76.8 L 50 50 L 4.8 71.3 L 50 50 L 2.4 65.5 L 50 50 L 0.9 59.4 L 50 50 L 0.1 53.1 L 50 50 L 0.1 46.9 L 50 50 L 0.9 40.6 L 50 50 L 2.4 34.5 L 50 50 L 4.8 28.7 L 50 50 L 7.8 23.2 L 50 50 L 11.5 18.1 L 50 50 L 15.8 13.6 L 50 50 L 20.6 9.5 L 50 50 L 25.9 6.2 L 50 50 L 31.6 3.5 L 50 50 L 37.6 1.6 L 50 50 L 43.7 0.4 L 50 50 Z" fill="#000000" stroke="#F2F2F2" stroke-miterlimit="10" stroke-dasharray="" fill-opacity="0"></path></svg></defs><use href="#svg3780343326"></use></svg>