<svg xmlns="http://www.w3.org/2000/svg" xmlns:xlink="http://www.w3.org/1999/xlink" style="width: 100%; height: 100%" width="54"  height="60" ><defs><svg xmlns="http://www.w3.org/2000/svg" xlink="http://www.w3.org/1999/xlink" viewBox="0 0 54 60" id="svg1201435468"><path d="M 27.1 60 C 24.8 60 23.1 59.3 21.9 57.8 C 20.7 56.4 20.1 54.7 20.1 53 C 20.1 51.1 20.5 49.3 21.3 47.7 C 22.1 46.1 22.9 44.2 23.8 42.1 C 24.7 40 25.3 37.5 25.7 34.5 C 25.8 33.8 25.7 33.3 25.3 33.2 C 24.9 33 24.4 33.2 23.8 33.6 C 20.2 36.6 17.7 39.3 16.3 41.9 C 14.9 44.4 13 46.3 10.6 47.6 C 9 48.4 7.4 48.7 5.6 48.4 C 3.7 48.1 2.2 47 1 45.1 C -0.1 43.1 -0.3 41.1 0.3 39.4 C 0.9 37.6 2 36.3 3.5 35.4 C 5.2 34.4 6.9 33.9 8.8 33.8 C 10.7 33.7 12.7 33.5 14.9 33.3 C 17.1 33.1 19.6 32.3 22.4 31.1 C 23.1 30.9 23.5 30.5 23.5 30 C 23.5 29.5 23.1 29.2 22.4 28.9 C 19.6 27.6 17.2 26.8 14.9 26.7 C 12.7 26.5 10.6 26.4 8.8 26.3 C 6.9 26.2 5.2 25.6 3.5 24.7 C 1.9 23.7 0.9 22.4 0.3 20.6 C -0.3 18.7 -0 16.8 1 14.9 C 2.2 13 3.7 11.8 5.5 11.5 C 7.3 11.2 9 11.4 10.5 12.4 C 12.2 13.4 13.6 14.6 14.6 16.1 C 15.7 17.6 16.9 19.2 18.2 21 C 19.5 22.8 21.4 24.7 23.8 26.6 C 24.4 27.1 24.9 27.2 25.2 27 C 25.6 26.8 25.7 26.3 25.6 25.6 C 25.2 22.5 24.6 19.9 23.7 17.9 C 22.8 15.9 22 14 21.2 12.3 C 20.4 10.6 20 8.9 20 7.1 C 20 5.3 20.6 3.7 21.8 2.2 C 23.1 0.7 24.8 0 27.1 0 C 29.4 0 31.1 0.7 32.3 2.2 C 33.5 3.6 34.1 5.3 34.1 7.1 C 34.1 8.9 33.7 10.6 32.9 12.3 C 32.1 14 31.3 15.8 30.4 17.9 C 29.5 19.9 28.9 22.5 28.5 25.6 C 28.4 26.3 28.5 26.8 28.9 27 C 29.3 27.2 29.8 27.1 30.2 26.6 C 32.7 24.7 34.6 22.8 35.9 21 C 37.2 19.2 38.3 17.6 39.4 16.1 C 40.5 14.6 41.9 13.4 43.5 12.4 C 45.1 11.4 46.7 11.1 48.5 11.5 C 50.3 11.9 51.8 13 53 14.9 C 54.1 16.8 54.3 18.7 53.7 20.5 C 53.1 22.3 52 23.7 50.5 24.6 C 48.8 25.6 47.1 26.1 45.2 26.2 C 43.3 26.3 41.3 26.5 39.1 26.6 C 36.9 26.8 34.4 27.5 31.6 28.8 C 30.9 29 30.5 29.4 30.5 29.9 C 30.5 30.4 30.9 30.7 31.6 31 C 34.4 32.2 36.8 32.9 39.1 33.2 C 41.3 33.4 43.3 33.6 45.2 33.7 C 47.1 33.8 48.8 34.4 50.5 35.3 C 52.1 36.1 53.1 37.5 53.7 39.3 C 54.3 41.1 54.1 43 53 45 C 51.8 46.9 50.3 48 48.5 48.3 C 46.7 48.6 45 48.3 43.5 47.5 C 41.2 46.2 39.4 44.3 37.9 41.8 C 36.5 39.3 33.9 36.5 30.4 33.5 C 29.9 33 29.4 32.9 29 33.1 C 28.5 33.3 28.3 33.7 28.5 34.4 C 28.9 37.4 29.5 39.9 30.4 42 C 31.3 44.1 32.1 46 32.9 47.6 C 33.7 49.2 34.1 51 34.1 52.9 C 34.1 54.7 33.5 56.3 32.3 57.7 C 31.1 59.3 29.4 60 27.1 60 Z" fill="#ABEE5F"></path></svg></defs><use href="#svg1201435468"></use></svg>